{"title":"No Place on Earth 2012-720p-BluRay-DTS-x264@Anirban","uid":8868159,"size":647445132,"categoryP":"video","categoryS":"hd___movies","magnet":"?xt=urn:btih:0bd5efc1dce3f0d3db453e1afc75f6e22aa5989f&amp;dn=No+Place+on+Earth+2012-720p-BluRay-DTS-x264%40Anirban&amp;tr=udp%3A%2F%2Ftracker.openbittorrent.com%3A80&amp;tr=udp%3A%2F%2Fopen.demonii.com%3A1337&amp;tr=udp%3A%2F%2Ftracker.coppersurfer.tk%3A6969&amp;tr=udp%3A%2F%2Fexodus.desync.com%3A6969","seeders":1,"leechers":0,"uploader":"NokiaAnir","files":16,"time":1377981549,"description":"General\nFormat                           : MPEG-4\nFormat profile                   : Base Media\nCodec ID                         : isom\nFile size                        : 5.89 MiB\nDuration                         : 31s 406ms\nOverall bit rate                 : 1 573 Kbps\nEncoded date                     : UTC 2013-08-31 18:26:12\nTagged date                      : UTC 2013-08-31 18:26:12\nWriting application              : vlc 2.0.2 stream output\nComment                          : QuickTime 6.0 or greater\n\nVideo\nID                               : 2\nFormat                           : AVC\nFormat/Info                      : Advanced Video Codec\nFormat profile                   : &lt;a class=&quot;__cf_email__&quot; href=&quot;/cdn-cgi/l/email-protection&quot; data-cfemail=&quot;1058797778505c233e21&quot;&gt;[email&amp;#160;protected]&lt;/a&gt;&lt;script cf-hash='f9e31' type=&quot;text/javascript&quot;&gt;\n/* &lt;![CDATA[ */!function(){try{var t=&quot;currentScript&quot;in document?document.currentScript:function(){for(var t=document.getElementsByTagName(&quot;script&quot;),e=t.length;e--;)if(t[e].getAttribute(&quot;cf-hash&quot;))return t[e]}();if(t&amp;&amp;t.previousSibling){var e,r,n,i,c=t.previousSibling,a=c.getAttribute(&quot;data-cfemail&quot;);if(a){for(e=&quot;&quot;,r=parseInt(a.substr(0,2),16),n=2;a.length-n;n+=2)i=parseInt(a.substr(n,2),16)^r,e+=String.fromCharCode(i);e=document.createTextNode(e),c.parentNode.replaceChild(e,c)}}}catch(u){}}();/* ]]&gt; */&lt;/script&gt;\nFormat settings, CABAC           : Yes\nFormat settings, ReFrames        : 4 frames\nFormat settings, GOP             : M=2, N=32\nCodec ID                         : avc1\nCodec ID/Info                    : Advanced Video Coding\nDuration                         : 31s 406ms\nBit rate mode                    : Variable\nBit rate                         : 1 526 Kbps\nWidth                            : 1 280 pixels\nHeight                           : 720 pixels\nDisplay aspect ratio             : 16:9\nFrame rate                       : 23.976 fps\nColor space                      : YUV\nChroma subsampling               : 4:2:0\nBit depth                        : 8 bits\nScan type                        : Progressive\nBits/(Pixel*Frame)               : 0.069\nStream size                      : 5.71 MiB (97%)\nLanguage                         : English\nEncoded date                     : UTC 2013-08-31 18:26:12\nTagged date                      : UTC 2013-08-31 18:26:12\n\nAudio\nID                               : 1\nFormat                           : AAC\nFormat/Info                      : Advanced Audio Codec\nFormat profile                   : HE-AAC / LC\nCodec ID                         : 40\nDuration                         : 26s 710ms\nBit rate mode                    : Variable\nBit rate                         : 48.0 Kbps\nMaximum bit rate                 : 62.6 Kbps\nChannel(s)                       : 2 channels\nChannel positions                : Front: L R\nSampling rate                    : 48.0 KHz / 24.0 KHz\nCompression mode                 : Lossy\nStream size                      : 159 KiB (3%)\nLanguage                         : English\nEncoded date                     : UTC 2013-08-31 18:26:12\nTagged date                      : UTC 2013-08-31 18:26:12\n\nText\nID                               : 3\nDuration                         : 25s 774ms\nBit rate mode                    : Variable\nBit rate                         : 89 bps\nStream size                      : 287 Bytes (0%)\nLanguage                         : English\nEncoded date                     : UTC 2013-08-31 18:26:12\nTagged date                      : UTC 2013-08-31 18:26:12","torrent":{"xt":"urn:btih:0bd5efc1dce3f0d3db453e1afc75f6e22aa5989f","amp;dn":"No+Place+on+Earth+2012-720p-BluRay-DTS-x264%40Anirban","amp;tr":["udp%3A%2F%2Ftracker.openbittorrent.com%3A80","udp%3A%2F%2Fopen.demonii.com%3A1337","udp%3A%2F%2Ftracker.coppersurfer.tk%3A6969","udp%3A%2F%2Fexodus.desync.com%3A6969"],"infoHash":"0bd5efc1dce3f0d3db453e1afc75f6e22aa5989f","infoHashBuffer":{"type":"Buffer","data":[11,213,239,193,220,227,240,211,219,69,62,26,252,117,246,226,42,165,152,159]},"announce":[],"urlList":[]}}